<svg xmlns="http://www.w3.org/2000/svg" viewBox="0 0 199.97441 275.17071"><defs><style>.cls-1{fill:none;}.cls-1,.cls-2{stroke:#000;stroke-miterlimit:10;stroke-width:3px;}</style></defs><title>Asset 2</title><g id="Layer_2" data-name="Layer 2"><g id="Layer_2-2" data-name="Layer 2"><path class="cls-1" d="M46.08337,110.82437c-.70234.82618-.80723,2.18074-2.22808,2.46087-.73174-.09586-.95188-.83426-1.43929-1.25885-3.17764-2.76816-5.76447-5.13872-4.99819-10.40342.73633-5.059-3.16-9.514-6.2198-13.28741-6.10257-7.52568-4.761-15.12278-1.71124-23.02715,1.63424-4.23563.34041-8.10585-1.2646-11.89646a22.46546,22.46546,0,0,0-3.61887-6.19758c-3.63959-4.08577-2.54-8.52368.43078-11.4277,5.5669-5.44186,7.18653-12.41557,9.87177-19.14638,1.95657-4.90437-.85572-9.70942,1.69271-14.92763l76.9572,16.49948c-2.57419,13.85479-4.93635,27.223-7.56975,40.53759-2.15041,10.87232-4.65655,21.66939-6.34494,32.63839a8.387,8.387,0,0,0,1.9191,6.7938c17.64261,22.9125,35.59562,45.59094,52.94581,68.72191,11.68722,15.58122,23.18165,31.30532,35.14505,46.67992.36842.47349,1.08952,1.42838,1.014,1.70487-1.72223,6.30624,5.09338,9.98332,4.81958,15.87-.08115,1.745,2.90523,1.89748,2.96323,4.28453-6.653,2.20276-9.91387,6.95034-9.78567,14.097a5.775,5.775,0,0,1-2.9429,4.709c-2.09223,1.36156-3.43384,2.401-2.53244,5.3406.54382,1.77348-.28411,3.96761-.48432,5.86531,1.06442,1.776,2.81745,1.39678,4.36779,1.16638-.44945,4.6407-3.8247,7.50654-7.94684,6.98923-14.44473-1.81277-28.9919-1.98969-43.4917-2.92392-5.86011-.37756-7.58019.101-7.17893-6.83026.70106-12.11032-6.46338-19.457-14.20123-26.84721-1.86164-1.778-5.12128.79558-6.15816-2.346-.67676-2.05052.20051-4.31013-.84369-6.40918-1.15984-2.33157-3.54692-2.35385-5.25245-2.28409-4.77352.19528-7.5135-2.1908-9.58906-6.00161-2.10938-3.87287-4.51815-6.8661-9.63214-7.44463-3.89432-.44054-7.41241-4.35787-11.3181-3.89448-3.45748.4102-4.48158-1.44616-6.27278-2.84352a28.38522,28.38522,0,0,1,.81453-3.54627c3.21767-8.57284.41832-15.96929-4.68935-22.73027a36.85587,36.85587,0,0,1-6.95464-15.26382c-.63352-3.15876-3.13848-5.49841-5.09334-7.94128-2.30465-2.88-1.22269-5.07995.53095-7.46272,1.1636-1.58106,2.94159-3.09562,3.22807-4.83974.36485-2.22149.6399-6.01-2.52433-6.06951-6.07189-.1143-6.293-5.45023-7.54572-8.59383-1.62776-4.08459-.72963-9.09934,1.57134-13.57921.51192,3.66922.79547,7.23434,5.38249,8.18121,2.25618-5.20491-3.01669-9.20133-2.50088-14.11874"/><circle class="cls-1" cx="93.41961" cy="140.91625" r="91.91961"/><circle class="cls-2" cx="96.12313" cy="202.9769" r="2.70352"/><circle class="cls-2" cx="55.32459" cy="108.108" r="2.70352"/><circle class="cls-2" cx="121.92944" cy="138.21274" r="2.70352"/></g></g></svg>